<?xml version="1.0" encoding="utf-8"?>
<!-- Generator: Adobe Illustrator 23.0.2, SVG Export Plug-In . SVG Version: 6.00 Build 0)  -->
<svg version="1.1" id="Layer_1" xmlns="http://www.w3.org/2000/svg" xmlns:xlink="http://www.w3.org/1999/xlink" x="0px" y="0px"
	 viewBox="0 0 520.3 353.89" style="enable-background:new 0 0 520.3 353.89;" xml:space="preserve">
<style type="text/css">
	.st0{fill:#29B473;}
	.st1{fill:#404041;}
	.st2{fill:url(#SVGID_1_);}
	.st3{fill:url(#SVGID_2_);}
</style>
<g>
	<g>
		<path class="st0" d="M388.89,6.74c-5.42-8.92-18.35-9-23.88-0.14L200.28,270.59l46.74,76.51c5.62,9.2,19.04,9.01,24.4-0.33
			L373.37,169.1l71.46,133.36l75.46-79.59L388.89,6.74z"/>
		<path class="st0" d="M153.79,6.74c-5.42-8.92-18.35-9-23.88-0.14L0,214.79l69.81,73.63l68.47-119.32l38.35,62.77l57.76-92.57
			L153.79,6.74z"/>
	</g>
	<g>
		<path class="st1" d="M388.89,6.74c-5.42-8.92-18.35-9-23.88-0.14L200.28,270.59l46.74,76.51c5.62,9.2,19.04,9.01,24.4-0.33
			L373.37,169.1l71.46,133.36l75.46-79.59L388.89,6.74z"/>
		<path class="st1" d="M153.79,6.74c-5.42-8.92-18.35-9-23.88-0.14L0,214.79l69.81,73.63l68.47-119.32l38.35,62.77l57.76-92.57
			L153.79,6.74z"/>
	</g>
	<g>
		<linearGradient id="SVGID_1_" gradientUnits="userSpaceOnUse" x1="134.8591" y1="1.8208" x2="342.5356" y2="361.5271">
			<stop  offset="5.586592e-03" style="stop-color:#00A99D"/>
			<stop  offset="0.8071" style="stop-color:#26A474"/>
			<stop  offset="1" style="stop-color:#30A369"/>
		</linearGradient>
		<path class="st2" d="M388.89,6.74c-5.42-8.92-18.35-9-23.88-0.14L200.28,270.59l46.74,76.51c5.62,9.2,19.04,9.01,24.4-0.33
			L373.37,169.1l71.46,133.36l75.46-79.59L388.89,6.74z"/>
		<linearGradient id="SVGID_2_" gradientUnits="userSpaceOnUse" x1="134.8591" y1="1.8208" x2="342.5356" y2="361.5271">
			<stop  offset="5.586592e-03" style="stop-color:#00A99D"/>
			<stop  offset="0.8071" style="stop-color:#26A474"/>
			<stop  offset="1" style="stop-color:#30A369"/>
		</linearGradient>
		<path class="st3" d="M153.79,6.74c-5.42-8.92-18.35-9-23.88-0.14L0,214.79l69.81,73.63l68.47-119.32l38.35,62.77l57.76-92.57
			L153.79,6.74z"/>
	</g>
</g>
</svg>
