<?xml version="1.0" encoding="utf-8"?>
<!-- Generator: Adobe Illustrator 21.0.2, SVG Export Plug-In . SVG Version: 6.00 Build 0)  -->
<svg version="1.1" id="Layer_1" xmlns="http://www.w3.org/2000/svg" xmlns:xlink="http://www.w3.org/1999/xlink" x="0px" y="0px"
	 viewBox="0 0 612 437" style="enable-background:new 0 0 612 437;" xml:space="preserve">
<style type="text/css">
	.st0{fill:#E2AA7B;}
	.st1{fill:#FFFFFF;}
</style>
<g>
	<g>
		<g>
			<path class="st0" d="M548.3,318.8c0,0-4.8-4.2-4.5-11.4c0.3-7.2,5.6-12.2,5.6-12.2s4.7,5,4.3,12.6
				C553.4,315.3,548.3,318.8,548.3,318.8z"/>
			<path class="st0" d="M551.9,326.1c0,0,7.1,0.2,12.3-5.8c5.2-6,4.8-14.1,4.8-14.1s-7.6,0.5-13.1,6.8
				C550.4,319.5,551.9,326.1,551.9,326.1z"/>
			<path class="st0" d="M556.1,302.6c0,0-4.1-3.7-4.1-10.2s4.3-11.2,4.3-11.2s4,4.4,4,11.3C560.3,299.3,556.1,302.6,556.1,302.6z"/>
			<path class="st0" d="M558.6,306.7c0,0,5.6,0.2,10.4-4.6s5.2-11.3,5.2-11.3s-6.1,0.4-11.1,5.5S558.6,306.7,558.6,306.7z"/>
			<path class="st0" d="M563.4,292c0,0,5.4-1.9,7.6-7.9c2.2-6-0.4-12-0.4-12s-5.6,2.5-7.9,8.9C560.4,287.4,563.4,292,563.4,292z"/>
		</g>
		<g>
			<path class="st0" d="M334.7,378.2c1.5-1.4,2.7-2.1,3.6-2.1c0.8,0,1.7,0.2,2.4,0.6c0.8,0.4,1.4,0.6,1.9,0.6c0.9,0,1.4-0.5,1.4-1.5
				c0-1.4-0.7-2.9-2.1-4.6c-1.4-1.7-2.8-2.6-4.1-2.6c-2.6,0-5.3,1.1-8,3.4c-2.7,2.3-4.9,5-6.6,8.2c-1.7,3.2-2.5,6.1-2.5,8.8
				c0,1.8,1.2,3.8,3.6,5.8c2.4,2.1,4.5,3.1,6.4,3.1c2.9,0,5.8-0.9,8.8-2.6c2.9-1.7,4.4-3.4,4.4-5.1c0-0.9-0.5-1.4-1.6-1.4
				c-0.5,0-1.1,0.2-1.8,0.5c-0.7,0.3-1.7,0.6-3.1,0.9c-1.4,0.3-2.9,0.5-4.6,0.5c-1.7,0-2.8-0.2-3.2-0.5c-0.4-0.3-0.7-1.1-0.7-2.2
				s0.6-2.7,1.8-4.7C331.8,381.3,333.2,379.6,334.7,378.2z"/>
			<path class="st0" d="M367.4,372.5c0.1-0.2,0.3-0.4,0.6-0.7c0.2-0.3,0.4-0.8,0.4-1.5c0-1.3-1.4-2-4.2-2c-1.2,0-2.5,0.4-4.1,1.1
				c-1.5,0.7-3,1.6-4.2,2.8c-0.4-1.2-0.9-2.1-1.7-2.7c-0.7-0.6-1.5-0.9-2.2-0.9c-1.3,0-2,1.1-2,3.2l0.3,6.4c0,1.9-0.1,3.6-0.4,5
				c-0.3,1.5-0.8,3.2-1.5,5.2c-0.7,2-1.1,3.5-1.1,4.5c0,1,0.3,2.1,0.9,3.2c0.6,1.1,1.5,1.7,2.7,1.7c1.2,0,2.3-1.1,3.2-3.2
				c1-2.1,2-5.4,3-9.8c0.6-2.7,1.5-4.7,2.7-6.2c1.2-1.5,2.7-2.8,4.4-3.8c0.4-0.2,1-0.6,1.9-1.2c0.2-0.1,0.4-0.3,0.7-0.5
				C367,372.8,367.2,372.6,367.4,372.5z"/>
			<path class="st0" d="M406.2,378.2c1.5-1.4,2.7-2.1,3.6-2.1s1.7,0.2,2.4,0.6c0.8,0.4,1.4,0.6,1.9,0.6c0.9,0,1.4-0.5,1.4-1.5
				c0-1.4-0.7-2.9-2.1-4.6c-1.4-1.7-2.8-2.6-4.1-2.6c-2.6,0-5.3,1.1-8,3.4c-2.7,2.3-4.9,5-6.6,8.2c-1.7,3.2-2.5,6.1-2.5,8.8
				c0,1.8,1.2,3.8,3.6,5.8c2.4,2.1,4.5,3.1,6.4,3.1c2.9,0,5.8-0.9,8.8-2.6c2.9-1.7,4.4-3.4,4.4-5.1c0-0.9-0.5-1.4-1.6-1.4
				c-0.5,0-1.1,0.2-1.8,0.5c-0.7,0.3-1.7,0.6-3.1,0.9c-1.4,0.3-2.9,0.5-4.6,0.5s-2.8-0.2-3.2-0.5c-0.4-0.3-0.7-1.1-0.7-2.2
				s0.6-2.7,1.8-4.7C403.3,381.3,404.6,379.6,406.2,378.2z"/>
			<path class="st0" d="M442.5,394.1c-0.8-0.7-1.6-1.3-2.5-2c-0.9-0.6-1.8-1.6-2.5-2.8c-0.8-1.2-1.2-2.5-1.2-3.8s0.8-2.8,2.4-4.5
				c1.6-1.7,3.2-3.2,4.8-4.6c1.6-1.4,2.4-2.2,2.4-2.6c0-0.9-0.6-2.1-1.7-3.3c-1.1-1.3-2.2-1.9-3.1-1.9c-0.5,0-1.2,0.4-2.1,1.3
				c-0.5,0.4-1,0.9-1.5,1.3c-0.5,0.5-1,1.1-1.7,1.9c-0.6,0.8-1.2,1.5-1.8,2.1c-0.5,0.6-1.2,1.4-2,2.4c-0.8,1-1.4,1.8-2,2.5
				c-0.5,0.7-1.2,1.6-2.1,2.6c-0.9,1.1-1.5,1.9-2,2.6c1.5-3.3,3-7.9,4.5-13.7c1.5-5.8,2.2-9.8,2.2-11.8c0-1.4-0.8-3-2.2-4.6
				c-1.5-1.7-2.7-2.5-3.6-2.5c-1.1,0-1.6,0.6-1.6,1.8c0,4.5-0.6,9.8-1.9,15.8c-1.3,6-2.5,11.2-3.8,15.5c-1.3,4.3-1.9,6.5-1.9,6.8
				c0,0.8,0.7,2,2,3.4c1.3,1.4,2.4,2.1,3.3,2.1c1.1,0,3.4-2.5,6.8-7.4l1.4,1.4c3.9,4,7.1,6,9.5,6c2,0,3-0.7,3-2.2
				C443.7,395.3,443.3,394.7,442.5,394.1z"/>
			<path class="st0" d="M460.1,368.6c-2.4,0-4.8,1-7.3,3c-2.4,2-4.5,4.5-6.1,7.5c-1.6,3-2.4,5.9-2.4,8.6c0,2.8,1,5.1,2.9,7.1
				s4.5,3,7.7,3c3.2,0,6-0.7,8.5-2c2.4-1.3,3.7-2.7,3.7-4.2c0-1-0.8-1.5-2.3-1.5c-0.1,0-1.1,0.3-3.2,0.8c-2,0.5-4.5,0.8-7.3,0.8
				c-1.4,0-2.2-0.2-2.6-0.7c-0.3-0.4-0.5-1.2-0.5-2.2c0-1,0.2-2.1,0.5-3.1c1.7,0.4,3.9,0.6,6.6,0.6s5.2-0.7,7.8-2.2
				c2.5-1.5,3.8-3.2,3.8-5c0-2.4-1-4.7-3.1-7.1C464.7,369.7,462.5,368.6,460.1,368.6z M455.4,381c-0.6,0-1.1,0-1.5-0.1
				c1-1.6,2-2.9,3.1-3.9c1.1-1,2-1.5,2.7-1.5c0.7,0,1.5,0.4,2.2,1.1s1.2,1.3,1.2,1.7C463.2,380.1,460.6,381,455.4,381z"/>
			<path class="st0" d="M490.2,373.1c0.3-0.2,0.5-0.4,0.7-0.6c0.1-0.2,0.3-0.4,0.6-0.7c0.2-0.3,0.4-0.8,0.4-1.5c0-1.3-1.4-2-4.2-2
				c-1.2,0-2.5,0.4-4.1,1.1c-1.5,0.7-3,1.6-4.2,2.8c-0.4-1.2-0.9-2.1-1.7-2.7c-0.7-0.6-1.5-0.9-2.3-0.9c-1.3,0-2,1.1-2,3.2l0.3,6.4
				c0,1.9-0.1,3.6-0.4,5c-0.3,1.5-0.8,3.2-1.5,5.2c-0.7,2-1.1,3.5-1.1,4.5c0,1,0.3,2.1,0.9,3.2c0.6,1.1,1.5,1.7,2.7,1.7
				c1.2,0,2.3-1.1,3.2-3.2c1-2.1,2-5.4,3-9.8c0.6-2.7,1.5-4.7,2.7-6.2c1.2-1.5,2.7-2.8,4.4-3.8c0.4-0.2,1-0.6,1.9-1.2
				C489.7,373.5,489.9,373.3,490.2,373.1z"/>
			<path class="st0" d="M510.5,371.2c-1.4-1.7-2.8-2.6-4.3-2.6c-2.1,0-5.1,1.2-8.8,3.6c-3.7,2.4-5.6,4.6-5.6,6.7
				c0,1.1,0.5,2.2,1.6,3.4c1.1,1.2,2.3,2.1,3.5,2.9c1.3,0.8,2.4,1.7,3.5,2.6c1.1,0.9,1.6,1.8,1.6,2.5c0,0.8-1.4,1.1-4.2,1.1
				c-2.8,0-5.2-0.5-7.1-1.7c-0.7-0.4-1.3-0.6-1.8-0.6c-1.2,0-1.8,0.7-1.8,2.2c0,1.5,1.1,2.9,3.3,4.3c2.2,1.4,4.9,2.1,7.9,2.1
				c3.1,0,5.8-0.8,8.1-2.4c2.3-1.6,3.4-3.2,3.4-4.8c0-1.6-0.5-3-1.5-4.4c-1-1.3-2.1-2.4-3.4-3.2c-1.2-0.8-2.3-1.5-3.4-2.2
				c-1-0.7-1.5-1.3-1.5-1.7c0-1,0.9-1.8,2.6-2.4c1.7-0.6,3-0.9,3.9-0.9c0.9,0,1.8,0.2,2.6,0.5c0.9,0.4,1.5,0.5,2,0.5
				c0.8,0,1.2-0.5,1.2-1.4C512.6,374.4,511.9,372.9,510.5,371.2z"/>
			<path class="st0" d="M390.2,375.5c-0.1-0.3-0.2-0.6-0.4-0.8c-1.4-2.9-4.7-6.1-8.1-6.1c-2.8,0-5.6,1.4-8.4,4.3
				c-2.8,2.8-5.1,5.9-6.7,9.3c-1.6,3.3-2.4,5.9-2.4,7.7c0,1.8,0.9,3.6,2.8,5.4c1.9,1.8,3.7,2.7,5.3,2.7c2.4,0,5.4-1.8,9-5.5
				c0.4,1.5,1,2.8,1.7,3.9c0.8,1.1,1.4,1.6,2,1.6c0.5,0,0.9-0.2,1.1-0.5c0.2-0.2,0.3-0.4,0.4-0.5c0.1-0.2,0.2-0.4,0.3-0.7
				c0.1-0.3,0.2-0.6,0.2-0.9c0.1-0.2,0.1-0.6,0.2-1c0.1-0.4,0.2-0.8,0.2-1.1c0-0.3,0.1-0.7,0.2-1.2c0.1-0.5,0.2-1.2,0.4-2
				c0.2-0.9,0.5-2.1,0.9-3.6c0.3-0.9,0.5-1.6,0.6-2.2C390.2,381.3,391.2,378.5,390.2,375.5z M378.2,387.7c-2.5,2.1-4.5,3.1-6.1,3.1
				c-0.4,0-0.6,0-0.7-0.1c-0.1-0.1-0.1-0.3-0.1-0.6c0-1.1,0.6-2.7,1.8-5c1.2-2.2,2.7-4.3,4.6-6.3c1.5-1.5,2.8-2.5,4.1-2.8
				c0.6,0.6,1.3,1.9,1.1,3.9c0,0,0,0,0,0C382.3,383,380.7,385.6,378.2,387.7z"/>
		</g>
	</g>
	<g>
		<g>
			<g>
				<path class="st1" d="M431.7,344.8c-2.8-0.6-3.7-2.2-2.8-4.7c6.5-17.6,10-36.1,12.1-54.5c1.4-11.9,2.2-24.3,2.6-36.4
					c0.2-6.1,0.3-12.3,0.2-18.5c0-4.9,0.4-14.9,6.5-10.6c9.5,6.6,10,24.7,9.6,35.7c-0.9,23-5.9,45.9-12.9,67.8
					C442.3,338.4,436.7,345.9,431.7,344.8z"/>
			</g>
		</g>
		<g>
			<g>
				<path class="st1" d="M135.1,330.8c-1.3-23.7-0.9-47.3,3.2-70.8c1.5-8.7,5.1-30.3,15.9-29.6c6.4,0.5,5.4,9.3,4.5,13.4
					c-1.1,5.2-2.2,10.6-3.2,16.1c-2,11.3-3.7,22.7-5,33.9c-2,17.1-3.3,34.7-1.4,52c0.3,2.3-1.1,4-4.1,4.8
					C139.6,352.3,136.2,345.5,135.1,330.8z"/>
			</g>
		</g>
		<path class="st1" d="M342.8,83.1c-1.8-2.6-5.6-3-8.5-1.8c-1.8,0.8-3.4,2-4.7,3.5c-0.8,0.9-1.5,1.8-2.2,2.7
			c-7.1,9.3-12,20-16.5,30.7c-3.6,8.5-7.2,17-10.7,25.8c-4.4,11-8.3,22.3-11.4,33.6c-4.5,16.8-9.4,33.4-13.5,50.3
			c-1.2,5.1-2.6,10-4.2,14.9c0,0-6.2,19.9-16.1,42c-6.3,13.9-29.6,60.5-52.7,51.7c-10.2-3.9-13.6-16.7-14.5-26.6
			c-2.9-30,5.2-62.6,24.3-86.2c4.9-6,10.5-11.5,16.9-15.9c8.5-5.9,19.9-9.9,29.3-5.4c3,1.4,5.6,3.7,8.8,4.8c3.1,1.1,7.3,0.8,9.1-2
			c1.6-2.5,0.6-5.9-1.4-8c-2.1-2.1-5-3.1-7.8-3.7c-18.2-4.3-37.8,0.9-53.1,11.7c-15.3,10.8-26.5,26.6-34.2,43.6
			c-8.2,18-12.8,37.7-13,57.6c-0.1,9.6,0.9,19.4,4.8,28.1c3.9,8.7,11.1,16.4,20.2,19.1c3.2,1,6.5,1.3,9.7,1.1c37.2,1,56-37,63.9-60
			c0,0-12.5,63.7,13.1,79.3c4.1,2.4,8.6,4.2,13.1,4.5c5.3,0.4,10.7-1.7,13.9-6.1c0.1-0.1,0.1-0.2,0.2-0.2c0.2-0.3,0.3-0.5,0.3-0.5
			c0.8-1.2,1.3-2.6,1.4-4c0.2-3.7-2.7-5.7-5.8-5.8c-3,0-6.3,1.3-9.4,1.6c-1.7,0.2-3.3,0-4.9-0.4c-14.5-3.4-12.2-38.9-10-57.5
			c0.2-1.3,0.4-2.6,0.5-3.9c2.2-15.4,4.9-30.8,8.2-46c5.6-25.9,12.7-51.4,21.3-76.5c5.7-16.8,12.1-33.3,19.3-49.5
			c2.3-5.2,4.5-10.4,7.2-15.4c3.9-7.2,7.4-14.5,9.7-22.5C343.9,88.9,344.5,85.5,342.8,83.1z"/>
		<path class="st1" d="M426.6,228.2c-0.3-4.3-0.7-8.7-1.5-12.9c-1.5-7.9-4.3-15.6-9.8-21.8c-10-11.3-26.4-10.1-38.2-2.5
			c-11.4,7.3-20,18.5-27.9,29.3c-8.4,11.4-15.8,23.6-22,36.3c1.2-1.2,1.6-5.9,2.1-7.7c0.7-2.7,1.4-5.3,2.2-8
			c12.5-43.3,31.9-84.4,53.1-124c1.6-3,3.2-6.4,2-9.6c-1.2-3.2-5.1-4.7-8.5-4.2c-13.2,1.9-23,20.4-29.1,30.6
			c-13.2,22.2-20.5,46.9-27.5,71.6c-6.3,22-12.4,44-16.8,66.5c-4,20.3-6.7,41-7.4,61.7c-0.2,5.6-0.3,13,4.8,16.7
			c2.1,1.6,4.6,1.8,6.4-0.4c1-1.3,1.5-2.9,2-4.5c5.8-20.8,10.6-42.1,17.8-62.5c7.1-20.1,17.2-40.9,29.6-58.3
			c4.6-6.5,9.8-12.6,15.6-18.2c4.9-4.7,11.5-9.7,18.5-9.8c13.6-0.3,13.8,19.5,13.7,28.7c-0.2,17.3-3.2,34.6-8.2,51.2
			c-3.1,10.4-6.8,20.7-11.7,30.5c-3.4,6.8-6.9,14.5-13,19.4c-8.1,6.5-22.4,9-29.7-0.2c-1.9-2.5-2.6-5.7-2.4-8.8
			c0.5-10.9,5.1-21.3,10.4-30.6c1.4-2.5,3.1-4.8,4.8-7.2c1.5-2.1,3.3-3.9,4.1-6.4c0.1-0.2,0.1-0.5,0.1-0.7c-0.9-4-12.1,8.9-12.3,9.2
			c0,0-0.1,0.1-0.1,0.1c-11.7,14.2-22.8,35.3-15.9,54.2c2.5,6.7,7.9,11.9,14.8,13.9c17.3,4.9,36-4.6,47.6-16.9
			c11.1-11.8,18.4-27,23.4-42.2c2.4-7.1,4.3-14.3,5.8-21.7C426.3,255.6,427.4,241.9,426.6,228.2z"/>
		<path class="st1" d="M248.7,355.6c-1.2-1.2-3.2-0.5-4.7,0.3c-5.3,2.8-10.2,6.3-14.9,10c-8.7,6.8-17,14.3-26.3,20.2
			c-13.7,8.7-30.7,13.5-46.4,10.8c-25.1-4.2-38.5-27.8-42.7-50.9c-7.7-41.9-2-88.6,7.6-129.9c0.1-0.3,0.1-0.6,0.2-0.9
			c19.5-5.9,45.8-14,58.3-18.6c1.5-0.5,2.9-1,4.2-1.6c0.6-0.3,1.2-0.6,1.8-0.9c0.8-0.5,1.5-1.1,1.3-2c-0.4-1.1-2.1-2.3-3.6-2.9
			c-2.3-1-4.6-1.4-6.7-1.5c-6.6-0.4-13.3,1-19.7,2.4c-5.2,1.1-10.4,2.3-15.6,3.4c-1,0.2-10.8,1.8-15.4,2.5
			c6.5-25.2,15.1-49.8,25.9-73.4c11.1-24.3,26.3-46.1,39.9-69c2.3-3.8,4.6-7.8,5.4-12.1c0.8-4.4-0.2-9.4-3.6-12.2
			c-3.4-2.9-8.6-3-12.8-1.2c-4.1,1.8-7.4,5-10.4,8.4c-11.7,13.4-19.9,29.4-27.3,45.5c-17,37.1-30.3,75.9-39.8,115.6
			c-10.2,0.3-20.3-1.2-30-4.3c-5.8-1.9-11.9-4.4-17.9-2.9c-5.2,1.3-9.2,5.3-12,9.9c-3.3,5.5-5,12.8-1.6,18.3
			c3.3,5.4,10.2,7.2,16.5,7.9c13.2,1.5,26.8,0,39.3-4.3c0.3-0.1-1.5,13.4-1.7,14.7c-5.2,31.3-6.9,55.6-6.8,74.2
			c0,19.3,1.9,39.2,9.5,57.2c7,16.4,19.9,30.5,36.8,36.8c19.3,7.2,41.3,4.8,59.9-3.4c20.4-8.9,37.4-24.2,52-40.9
			C248.8,359.4,250.1,357,248.7,355.6z"/>
		<path class="st1" d="M543.5,177.3c-5.6-0.3-11.3-0.1-16.8,0.1c-5.4,0.2-10.7,0.5-15.9,0.9c1.4-5.5,2.8-10.9,4.2-16.3
			c2.2-8.1,4.4-16.1,6.7-24.1c1.9-6.7,6.1-15.1,6.1-22.1c0-2.1-0.9-4.3-2.8-5.1c-2.1-0.9-4.5,0-6.4,1.2
			c-14.3,8.6-18.8,27.1-23.4,41.9c0,0-4.1,13.6-4.1,13.6c-1.2,4.4-2.3,8.8-3.3,13.2c-11.2,1.1-22.5,2.2-33.7,2.2
			c-5.9,0-12.1-0.5-17.9-0.3c-3.8,0.1-11.6-0.5-9.2,7.5c0.6,2.1,1.8,4.2,3.1,5.9c2.1,2.8,4.4,4.4,6.7,5.2c4.1,1.6,8.3,0.9,11.6,0.2
			c12.1-2.3,24.2-4.5,36.3-6.9c-7,33.9-9.7,65.9-8,96c2.5,45,16.7,66.8,42.5,65.3c9.9-0.6,17.9-9,23.4-16.8
			c2.2-3.2,4.2-6.6,5.6-10.2c0.8-2,1.4-4.1,1.7-6.2c0.1-0.6,0.2-1.2,0.1-1.8c0-0.3-0.1-0.3-0.4-0.4c-0.3,0-0.6,0-0.9,0.1
			c-0.8,0.2-1.5,0.7-2.2,1.2c-1.9,1.4-3.5,3.1-5.1,4.8c-1.6,1.8-3.2,3.7-4.7,5.6c-0.9,1.1-1.7,2.2-2.5,3.3c0,0-0.1,0.1-0.1,0.1
			c-5.7,7.1-14.8,11.8-23.2,6.3c-5.2-3.4-8-9.6-9.8-15.3c-6.8-21.2-5.8-44.5-4.4-66.4c1.6-23.7,5.8-47,11.2-70.1
			c6.6-1.3,13.4-2.6,20.5-3.9c7.5-1.3,15.9-2.4,24.1-4.7c1.3-0.4,2.9-0.9,3.1-1.6C556.4,177.8,546.2,177.4,543.5,177.3z"/>
	</g>
</g>
</svg>
