<?xml version="1.0" encoding="utf-8"?>
<!-- Generator: Adobe Illustrator 21.0.2, SVG Export Plug-In . SVG Version: 6.00 Build 0)  -->
<svg version="1.1" id="Layer_1" xmlns="http://www.w3.org/2000/svg" xmlns:xlink="http://www.w3.org/1999/xlink" x="0px" y="0px"
	 viewBox="0 0 1106 711" style="enable-background:new 0 0 1106 711;" xml:space="preserve">
<style type="text/css">
	.st0{fill:#493728;}
	.st1{fill:#E2AA7B;}
	.st2{fill:#FFFFFF;}
</style>
<g>
	<path class="st0" d="M959.3,700.3c43.5-2.1,81.4-30.9,84.7-77.1c17.7-188.6,35.4-377.3,53.2-565.9c2.3-41.9-24.4-78.9-70.2-77.1
		c-316.6,0-633.3,0-949.9,0c0,0,0,0,0,0c0,0,0,0-14.9,0c-9.2,0-13.8,0-22.9,0c0,0-37.8,0-30.6,77.1C26.3,246,44.1,434.6,61.8,623.2
		c6.2,43.1,38.4,78.2,84.7,77.1C417.4,700.3,688.4,700.3,959.3,700.3z"/>
</g>
<path class="st1" d="M873,458.7c0,0-6.5-5.8-6.1-15.5c0.4-9.8,7.6-16.6,7.6-16.6s6.3,6.8,5.9,17.1S873,458.7,873,458.7z"/>
<path class="st1" d="M877.9,468.7c0,0,9.6,0.3,16.7-7.9c7.1-8.2,6.5-19.1,6.5-19.1s-10.3,0.6-17.7,9.3S877.9,468.7,877.9,468.7z"/>
<path class="st1" d="M883.7,436.8c0,0-5.6-5-5.5-13.9c0.1-8.9,5.8-15.3,5.8-15.3s5.5,5.9,5.4,15.3
	C889.3,432.3,883.7,436.8,883.7,436.8z"/>
<path class="st1" d="M887,442.4c0,0,7.7,0.3,14.1-6.3c6.4-6.6,7-15.4,7-15.4s-8.3,0.5-15,7.5C886.3,435.1,887,442.4,887,442.4z"/>
<path class="st1" d="M893.6,422.4c0,0,7.4-2.5,10.3-10.7c3-8.2-0.6-16.3-0.6-16.3s-7.6,3.4-10.7,12.1
	C889.5,416.2,893.6,422.4,893.6,422.4z"/>
<g>
	<path class="st1" d="M583.1,539.5c2.1-1.9,3.7-2.9,4.8-2.9c1.1,0,2.2,0.3,3.3,0.9s1.9,0.8,2.6,0.8c1.2,0,1.9-0.7,1.9-2
		c0-1.9-1-4-2.9-6.3c-1.9-2.3-3.8-3.5-5.6-3.5c-3.6,0-7.2,1.5-10.9,4.6c-3.7,3.1-6.7,6.8-8.9,11.1c-2.3,4.3-3.4,8.3-3.4,11.9
		c0,2.5,1.6,5.1,4.8,7.9c3.2,2.8,6.1,4.2,8.6,4.2c4,0,7.9-1.2,11.9-3.5c4-2.3,6-4.7,6-6.9c0-1.2-0.7-1.9-2.2-1.9
		c-0.7,0-1.5,0.2-2.4,0.7c-0.9,0.4-2.3,0.9-4.2,1.3c-1.9,0.4-4,0.6-6.3,0.6c-2.3,0-3.7-0.2-4.3-0.7c-0.6-0.5-0.9-1.5-0.9-3
		s0.8-3.7,2.4-6.4C579.1,543.7,581,541.4,583.1,539.5z"/>
	<path class="st1" d="M627.4,531.7c0.2-0.2,0.4-0.5,0.8-1c0.3-0.4,0.5-1.1,0.5-2c0-1.8-1.9-2.7-5.6-2.7c-1.6,0-3.4,0.5-5.5,1.4
		c-2.1,1-4,2.2-5.8,3.8c-0.5-1.7-1.3-2.9-2.3-3.6s-2-1.2-3.1-1.2c-1.8,0-2.7,1.4-2.7,4.3l0.5,8.7c0,2.6-0.2,4.9-0.6,6.8
		c-0.4,2-1.1,4.3-2.1,7.1c-1,2.7-1.5,4.8-1.5,6.1c0,1.4,0.4,2.8,1.2,4.4c0.8,1.5,2,2.3,3.6,2.3c1.6,0,3.1-1.5,4.4-4.4
		c1.3-2.9,2.7-7.3,4.1-13.3c0.8-3.6,2.1-6.4,3.7-8.5c1.7-2,3.6-3.8,6-5.2c0.5-0.3,1.4-0.8,2.6-1.6c0.2-0.2,0.5-0.4,1-0.7
		C626.9,532.2,627.2,531.9,627.4,531.7z"/>
	<path class="st1" d="M680.1,539.5c2.1-1.9,3.7-2.9,4.8-2.9s2.2,0.3,3.3,0.9s1.9,0.8,2.6,0.8c1.2,0,1.9-0.7,1.9-2c0-1.9-1-4-2.9-6.3
		c-1.9-2.3-3.8-3.5-5.6-3.5c-3.6,0-7.2,1.5-10.9,4.6c-3.7,3.1-6.7,6.8-8.9,11.1c-2.3,4.3-3.4,8.3-3.4,11.9c0,2.5,1.6,5.1,4.8,7.9
		c3.2,2.8,6.1,4.2,8.6,4.2c4,0,7.9-1.2,11.9-3.5c4-2.3,6-4.7,6-6.9c0-1.2-0.7-1.9-2.2-1.9c-0.7,0-1.5,0.2-2.4,0.7
		c-0.9,0.4-2.3,0.9-4.2,1.3c-1.9,0.4-4,0.6-6.3,0.6s-3.7-0.2-4.3-0.7c-0.6-0.5-0.9-1.5-0.9-3s0.8-3.7,2.4-6.4
		C676.1,543.7,678,541.4,680.1,539.5z"/>
	<path class="st1" d="M729.4,561c-1.1-0.9-2.2-1.8-3.4-2.7c-1.2-0.9-2.4-2.2-3.4-3.8c-1.1-1.7-1.6-3.4-1.6-5.2s1.1-3.8,3.3-6.1
		c2.2-2.3,4.4-4.3,6.6-6.2c2.2-1.9,3.3-3,3.3-3.6c0-1.3-0.8-2.8-2.3-4.5c-1.5-1.7-3-2.6-4.3-2.6c-0.7,0-1.6,0.6-2.9,1.7
		c-0.7,0.6-1.3,1.2-2,1.8c-0.6,0.6-1.4,1.5-2.3,2.6c-0.9,1.1-1.7,2-2.4,2.9c-0.7,0.9-1.6,1.9-2.7,3.3c-1.1,1.3-1.9,2.5-2.7,3.4
		c-0.7,0.9-1.7,2.1-2.8,3.6c-1.2,1.5-2.1,2.6-2.7,3.5c2-4.5,4-10.8,6.1-18.6c2-7.9,3.1-13.2,3.1-16.1c0-2-1-4.1-3.1-6.3
		c-2-2.2-3.7-3.4-4.9-3.4c-1.4,0-2.2,0.8-2.2,2.4c0,6.1-0.9,13.3-2.6,21.5c-1.7,8.2-3.5,15.2-5.2,21c-1.7,5.8-2.6,8.9-2.6,9.2
		c0,1.1,0.9,2.7,2.7,4.6c1.8,1.9,3.3,2.9,4.4,2.9c1.5,0,4.6-3.4,9.3-10.1l1.9,1.9c5.4,5.5,9.7,8.2,12.9,8.2c2.7,0,4.1-1,4.1-3
		C731,562.6,730.5,561.9,729.4,561z"/>
	<path class="st1" d="M753.2,526.4c-3.3,0-6.6,1.4-9.9,4.1c-3.3,2.8-6,6.2-8.2,10.2c-2.2,4.1-3.3,8-3.3,11.7c0,3.7,1.3,7,3.9,9.7
		c2.6,2.7,6.1,4.1,10.5,4.1c4.4,0,8.2-0.9,11.5-2.7c3.3-1.8,5-3.7,5-5.7c0-1.4-1.1-2.1-3.2-2.1c-0.1,0-1.5,0.4-4.3,1.1
		c-2.8,0.7-6.1,1.1-9.9,1.1c-1.9,0-3-0.3-3.5-0.9c-0.5-0.6-0.7-1.6-0.7-3c0-1.4,0.2-2.8,0.7-4.2c2.3,0.5,5.3,0.8,8.9,0.8
		s7.1-1,10.6-3c3.4-2,5.1-4.3,5.1-6.8c0-3.2-1.4-6.4-4.2-9.6C759.5,528,756.5,526.4,753.2,526.4z M746.9,543.3c-0.9,0-1.5,0-2-0.1
		c1.3-2.2,2.8-3.9,4.3-5.3c1.5-1.4,2.7-2,3.7-2c1,0,2,0.5,3.1,1.5s1.6,1.7,1.6,2.2C757.5,542.1,754,543.3,746.9,543.3z"/>
	<path class="st1" d="M794.2,532.5c0.4-0.3,0.7-0.6,0.9-0.8c0.2-0.2,0.4-0.5,0.8-1c0.3-0.4,0.5-1.1,0.5-2c0-1.8-1.9-2.7-5.6-2.7
		c-1.6,0-3.4,0.5-5.5,1.4c-2.1,1-4,2.2-5.8,3.8c-0.5-1.7-1.3-2.9-2.3-3.6c-1-0.8-2-1.2-3.1-1.2c-1.8,0-2.7,1.4-2.7,4.3l0.5,8.7
		c0,2.6-0.2,4.9-0.6,6.8c-0.4,2-1.1,4.3-2.1,7.1c-1,2.7-1.5,4.8-1.5,6.1c0,1.4,0.4,2.8,1.2,4.4c0.8,1.5,2,2.3,3.6,2.3
		c1.6,0,3.1-1.5,4.4-4.4c1.3-2.9,2.7-7.3,4.1-13.3c0.8-3.6,2.1-6.4,3.7-8.5c1.6-2,3.6-3.8,6-5.2c0.5-0.3,1.4-0.8,2.6-1.6
		C793.5,533.1,793.8,532.9,794.2,532.5z"/>
	<path class="st1" d="M821.7,529.9c-1.9-2.3-3.8-3.5-5.8-3.5c-2.9,0-6.9,1.6-11.9,4.9c-5.1,3.3-7.6,6.3-7.6,9.1c0,1.5,0.7,3,2.2,4.6
		c1.5,1.6,3.1,2.9,4.8,4c1.7,1.1,3.3,2.3,4.8,3.5c1.5,1.3,2.2,2.4,2.2,3.4c0,1-1.9,1.5-5.8,1.5c-3.8,0-7.1-0.7-9.6-2.2
		c-0.9-0.5-1.7-0.8-2.4-0.8c-1.7,0-2.5,1-2.5,3c0,2,1.5,4,4.5,5.9c3,1.9,6.6,2.9,10.8,2.9c4.2,0,7.9-1.1,11-3.2
		c3.1-2.2,4.7-4.3,4.7-6.5c0-2.1-0.7-4.1-2.1-6c-1.4-1.8-2.9-3.3-4.6-4.3c-1.7-1-3.2-2-4.6-3s-2.1-1.7-2.1-2.2
		c0-1.3,1.2-2.4,3.5-3.2c2.3-0.8,4.1-1.2,5.3-1.2c1.2,0,2.4,0.2,3.6,0.7c1.2,0.5,2.1,0.7,2.7,0.7c1.1,0,1.6-0.6,1.6-1.9
		C824.6,534.3,823.6,532.3,821.7,529.9z"/>
	<path class="st1" d="M658.3,535.8c-0.1-0.4-0.3-0.8-0.5-1.1c-1.9-3.9-6.3-8.3-10.9-8.3c-3.8,0-7.6,1.9-11.4,5.8
		c-3.8,3.9-6.9,8.1-9.1,12.6c-2.2,4.5-3.3,8-3.3,10.5c0,2.5,1.3,4.9,3.9,7.3c2.6,2.5,5,3.7,7.2,3.7c3.3,0,7.4-2.5,12.2-7.4
		c0.5,2.1,1.3,3.8,2.4,5.3c1.1,1.4,1.9,2.2,2.7,2.2c0.7,0,1.2-0.2,1.5-0.6c0.2-0.3,0.4-0.5,0.5-0.7c0.2-0.2,0.3-0.6,0.4-1
		c0.1-0.4,0.2-0.8,0.3-1.2s0.2-0.8,0.3-1.4c0.1-0.6,0.2-1,0.3-1.4c0.1-0.4,0.1-0.9,0.3-1.6c0.1-0.7,0.3-1.6,0.5-2.7
		c0.2-1.2,0.6-2.8,1.2-4.9c0.4-1.3,0.6-2.2,0.8-3C658.4,543.7,659.7,539.8,658.3,535.8z M642.1,552.3c-3.4,2.8-6.2,4.2-8.2,4.2
		c-0.5,0-0.8-0.1-1-0.2c-0.1-0.1-0.2-0.4-0.2-0.8c0-1.4,0.8-3.7,2.4-6.7c1.6-3,3.7-5.9,6.3-8.6c2-2.1,3.8-3.4,5.5-3.8
		c0.8,0.9,1.8,2.6,1.6,5.3c0,0,0,0,0,0C647.6,546,645.5,549.5,642.1,552.3z"/>
</g>
<g>
	<g>
		<path class="st2" d="M714.7,494.1c-3.8-0.8-5-3-3.8-6.3c8.8-23.8,13.6-49.1,16.4-74c1.9-16.2,2.9-33,3.6-49.4
			c0.3-8.3,0.3-16.7,0.3-25.1c-0.1-6.7,0.6-20.2,8.9-14.4c12.9,9,13.6,33.6,13.1,48.5c-1.2,31.2-8,62.4-17.5,92
			C729.1,485.4,721.5,495.5,714.7,494.1z"/>
	</g>
</g>
<g>
	<g>
		<path class="st2" d="M311.9,475.1c-1.8-32.2-1.2-64.2,4.4-96.1c2.1-11.9,7-41.2,21.6-40.1c8.6,0.6,7.3,12.6,6.1,18.3
			c-1.5,7-3,14.4-4.3,21.9c-2.8,15.3-5,30.8-6.8,46.1c-2.7,23.2-4.4,47.2-1.8,70.6c0.3,3.1-1.5,5.4-5.6,6.5
			C318.1,504.3,313.5,495.1,311.9,475.1z"/>
	</g>
</g>
<path class="st2" d="M594,138.7c-2.5-3.5-7.6-4.1-11.6-2.5c-2.5,1-4.6,2.8-6.4,4.7c-1.1,1.2-2.1,2.4-3,3.7
	c-9.6,12.6-16.3,27.2-22.5,41.7c-4.9,11.5-9.8,23.2-14.5,35c-5.9,15-11.3,30.2-15.4,45.6c-6.1,22.8-12.8,45.4-18.4,68.4
	c-1.7,6.9-3.6,13.6-5.7,20.2c0,0-8.4,27.1-21.8,57c-8.6,18.9-40.3,82.2-71.6,70.2c-13.8-5.3-18.4-22.7-19.7-36.1
	c-3.9-40.7,7-85,33-117.1c6.6-8.2,14.3-15.6,22.9-21.6c11.6-8,27-13.4,39.7-7.3c4.1,2,7.7,5,11.9,6.6c4.3,1.6,9.9,1.1,12.3-2.8
	c2.1-3.4,0.9-8.1-2-10.9c-2.8-2.8-6.8-4.2-10.6-5.1c-24.7-5.9-51.4,1.2-72.1,15.8c-20.8,14.6-36,36.1-46.5,59.2
	c-11.1,24.5-17.4,51.3-17.7,78.2c-0.1,13,1.2,26.3,6.5,38.2c5.3,11.9,15,22.3,27.5,26c4.3,1.3,8.8,1.7,13.2,1.5
	c50.5,1.4,76-50.3,86.8-81.5c0,0-17,86.5,17.8,107.7c5.5,3.2,11.7,5.7,17.7,6.1c7.2,0.6,14.5-2.4,18.8-8.2c0.1-0.1,0.2-0.2,0.2-0.3
	c0.3-0.4,0.5-0.7,0.5-0.7c1.1-1.7,1.8-3.6,1.9-5.5c0.3-5-3.7-7.8-7.8-7.8c-4.1-0.1-8.5,1.7-12.7,2.2c-2.3,0.2-4.5,0-6.6-0.5
	c-19.7-4.7-16.6-52.8-13.6-78c0.2-1.7,0.5-3.5,0.7-5.2c2.9-21,6.7-41.8,11.1-62.5c7.6-35.1,17.2-69.8,28.9-103.8
	c7.8-22.8,16.4-45.2,26.1-67.2c3.1-7,6.1-14.1,9.8-20.9c5.3-9.7,10-19.7,13.2-30.6C595.5,146.6,596.3,142,594,138.7z"/>
<path class="st2" d="M707.7,335.8c-0.3-5.8-0.9-11.7-2-17.5c-2-10.8-5.9-21.1-13.4-29.5c-13.6-15.3-35.8-13.7-51.9-3.5
	c-15.5,9.9-27.1,25.2-37.9,39.8c-11.4,15.5-21.4,32-29.8,49.3c1.7-1.7,2.2-8.1,2.9-10.4c1-3.6,1.9-7.2,3-10.8
	c17-58.7,43.3-114.6,72.2-168.4c2.2-4,4.4-8.7,2.8-13c-1.7-4.3-6.9-6.4-11.5-5.8c-17.9,2.6-31.2,27.6-39.5,41.5
	c-18,30.1-27.8,63.7-37.3,97.2c-8.5,29.9-16.8,59.8-22.8,90.3c-5.4,27.6-9.2,55.6-10,83.8c-0.2,7.6-0.4,17.6,6.5,22.7
	c2.8,2.1,6.2,2.4,8.7-0.6c1.4-1.7,2.1-3.9,2.7-6.1c7.9-28.2,14.4-57.2,24.2-84.9c9.7-27.4,23.3-55.5,40.2-79.1
	c6.3-8.8,13.3-17.2,21.1-24.7c6.6-6.4,15.6-13.1,25.2-13.3c18.5-0.4,18.7,26.4,18.6,39c-0.2,23.6-4.4,47-11.1,69.5
	c-4.3,14.2-9.3,28.2-15.9,41.4c-4.6,9.3-9.3,19.7-17.6,26.3c-11,8.8-30.5,12.2-40.3-0.2c-2.6-3.3-3.5-7.8-3.3-12
	c0.7-14.8,6.9-28.9,14.2-41.6c1.9-3.4,4.3-6.5,6.5-9.7c2-2.9,4.4-5.3,5.5-8.7c0.1-0.3,0.2-0.7,0.1-1c-1.3-5.4-16.5,12.1-16.7,12.5
	c0,0-0.1,0.1-0.1,0.1c-15.9,19.3-31,48-21.6,73.6c3.4,9.1,10.7,16.1,20.1,18.8c23.5,6.7,48.8-6.2,64.7-23
	c15.1-16,24.9-36.6,31.8-57.3c3.2-9.6,5.8-19.5,7.9-29.4C707.5,372.9,708.8,354.3,707.7,335.8z"/>
<path class="st2" d="M466.3,508.8c-1.6-1.6-4.3-0.7-6.3,0.4c-7.2,3.8-13.8,8.5-20.2,13.5c-11.9,9.2-23,19.5-35.7,27.5
	c-18.6,11.8-41.7,18.3-63,14.7c-34.1-5.7-52.3-37.8-58-69.1c-10.5-57-2.7-120.3,10.3-176.3c0.1-0.4,0.2-0.8,0.3-1.3
	c26.5-8,62.3-19,79.1-25.2c2-0.6,4-1.3,5.7-2.1c0.9-0.4,1.7-0.8,2.4-1.3c1.1-0.6,2.1-1.5,1.7-2.7c-0.5-1.5-2.8-3.1-4.8-4
	c-3.1-1.4-6.2-1.9-9.1-2c-9-0.5-18,1.4-26.8,3.3c-7.1,1.5-14.1,3.1-21.2,4.6c-1.4,0.3-14.6,2.4-21,3.4c8.8-34.2,20.5-67.6,35.2-99.7
	c15.1-33,35.7-62.6,54.2-93.7c3.1-5.2,6.2-10.5,7.4-16.5c1.1-5.9-0.2-12.7-4.8-16.6c-4.7-3.9-11.7-4-17.3-1.6
	c-5.6,2.4-10.1,6.8-14.1,11.4c-15.9,18.1-27,39.9-37.1,61.8c-23,50.4-41.2,103.1-54,157c-13.8,0.3-27.6-1.7-40.8-5.9
	c-7.9-2.6-16.2-6-24.3-4c-7,1.7-12.6,7.3-16.3,13.4c-4.5,7.5-6.8,17.4-2.1,24.9c4.5,7.3,13.8,9.7,22.4,10.7c17.9,2,36.3,0,53.4-5.8
	c0.4-0.1-2,18.2-2.3,19.9c-7.1,42.5-9.4,75.6-9.3,100.8c0,26.2,2.5,53.3,12.9,77.6c9.5,22.2,27,41.4,50,50
	c26.2,9.8,56.1,6.5,81.4-4.6c27.7-12.1,50.8-32.8,70.7-55.6C466.4,513.9,468.2,510.7,466.3,508.8z"/>
<path class="st2" d="M866.5,266.6c-7.6-0.4-15.3-0.1-22.8,0.1c-7.3,0.2-14.5,0.7-21.5,1.3c1.9-7.4,3.8-14.8,5.8-22.2
	c2.9-11,6-21.9,9.1-32.8c2.6-9.1,8.2-20.5,8.3-30c0-2.8-1.3-5.8-3.8-7c-2.8-1.3-6.1,0-8.7,1.6c-19.4,11.6-25.6,36.8-31.8,56.9
	c0,0-5.6,18.5-5.6,18.5c-1.6,6-3.1,11.9-4.5,17.9c-15.2,1.5-30.5,3-45.8,3c-8.1,0-16.4-0.7-24.4-0.3c-5.1,0.2-15.7-0.7-12.6,10.2
	c0.8,2.9,2.4,5.7,4.2,8c2.9,3.7,6,5.9,9.2,7.1c5.6,2.1,11.2,1.2,15.8,0.3c16.4-3.1,32.9-6.2,49.3-9.3c-9.5,46-13.1,89.4-10.9,130.3
	c3.4,61.1,22.6,90.7,57.8,88.7c13.5-0.7,24.3-12.2,31.8-22.8c3-4.3,5.7-8.9,7.6-13.8c1.1-2.7,2-5.5,2.3-8.4c0.1-0.8,0.2-1.7,0.1-2.4
	c-0.1-0.4-0.1-0.5-0.5-0.5c-0.4,0-0.8,0-1.2,0.2c-1.1,0.3-2.1,0.9-3,1.6c-2.6,1.8-4.8,4.2-6.9,6.5c-2.2,2.4-4.3,5-6.3,7.5
	c-1.2,1.5-2.3,3-3.4,4.5c0,0.1-0.1,0.1-0.1,0.1c-7.8,9.6-20.2,16.1-31.5,8.5c-7-4.7-10.9-13-13.4-20.8c-9.2-28.7-7.9-60.5-6-90.2
	c2.1-32.1,7.9-63.9,15.2-95.2c9-1.8,18.2-3.6,27.8-5.3c10.2-1.8,21.6-3.2,32.8-6.4c1.8-0.5,3.9-1.3,4.3-2.1
	C884.1,267.4,870.2,266.8,866.5,266.6z"/>
</svg>
