<?xml version="1.0" encoding="utf-8"?>
<!-- Generator: Adobe Illustrator 21.0.2, SVG Export Plug-In . SVG Version: 6.00 Build 0)  -->
<svg version="1.1" id="Layer_1" xmlns="http://www.w3.org/2000/svg" xmlns:xlink="http://www.w3.org/1999/xlink" x="0px" y="0px"
	 viewBox="0 0 602 436" style="enable-background:new 0 0 602 436;" xml:space="preserve">
<style type="text/css">
	.st0{fill:#E2AA7B;}
	.st1{fill:#493728;}
</style>
<g>
	<g>
		<path class="st0" d="M564.9,328.6c0,0-5.3-4.7-4.9-12.6c0.4-7.9,6.1-13.4,6.1-13.4s5.1,5.5,4.7,13.8S564.9,328.6,564.9,328.6z"/>
		<path class="st0" d="M568.8,336.7c0,0,7.8,0.3,13.5-6.4c5.7-6.6,5.3-15.4,5.3-15.4s-8.3,0.5-14.3,7.5
			C567.2,329.4,568.8,336.7,568.8,336.7z"/>
		<path class="st0" d="M573.5,310.8c0,0-4.5-4-4.5-11.2s4.7-12.3,4.7-12.3s4.4,4.8,4.4,12.4C578.1,307.2,573.5,310.8,573.5,310.8z"
			/>
		<path class="st0" d="M576.2,315.4c0,0,6.2,0.2,11.4-5.1c5.2-5.3,5.7-12.5,5.7-12.5s-6.7,0.4-12.2,6
			C575.6,309.5,576.2,315.4,576.2,315.4z"/>
		<path class="st0" d="M581.5,299.2c0,0,5.9-2,8.4-8.7c2.4-6.6-0.5-13.2-0.5-13.2s-6.1,2.8-8.7,9.8
			C578.2,294.2,581.5,299.2,581.5,299.2z"/>
	</g>
	<g>
		<path class="st0" d="M330.5,393.9c1.7-1.6,3-2.3,3.9-2.3c0.9,0,1.8,0.2,2.7,0.7s1.6,0.7,2.1,0.7c1,0,1.5-0.5,1.5-1.6
			c0-1.5-0.8-3.2-2.3-5.1c-1.5-1.9-3-2.8-4.5-2.8c-2.9,0-5.8,1.3-8.8,3.8c-3,2.5-5.4,5.5-7.2,9c-1.8,3.5-2.8,6.7-2.8,9.6
			c0,2,1.3,4.1,3.9,6.4c2.6,2.3,4.9,3.4,7,3.4c3.2,0,6.4-0.9,9.6-2.8c3.2-1.9,4.8-3.8,4.8-5.6c0-1-0.6-1.5-1.8-1.5
			c-0.6,0-1.2,0.2-2,0.5c-0.7,0.4-1.9,0.7-3.4,1s-3.2,0.5-5.1,0.5c-1.9,0-3-0.2-3.5-0.6c-0.5-0.4-0.7-1.2-0.7-2.4c0-1.3,0.7-3,2-5.2
			C327.3,397.3,328.8,395.4,330.5,393.9z"/>
		<path class="st0" d="M366.3,387.6c0.1-0.2,0.4-0.4,0.6-0.8c0.3-0.4,0.4-0.9,0.4-1.7c0-1.5-1.5-2.2-4.6-2.2c-1.3,0-2.8,0.4-4.5,1.2
			c-1.7,0.8-3.2,1.8-4.7,3c-0.4-1.3-1-2.3-1.8-2.9c-0.8-0.6-1.6-0.9-2.5-0.9c-1.5,0-2.2,1.2-2.2,3.5l0.4,7.1c0,2.1-0.2,3.9-0.5,5.5
			c-0.3,1.6-0.9,3.5-1.7,5.7c-0.8,2.2-1.2,3.9-1.2,5c0,1.1,0.3,2.3,1,3.5c0.6,1.3,1.6,1.9,2.9,1.9c1.3,0,2.5-1.2,3.6-3.5
			c1.1-2.4,2.2-5.9,3.3-10.7c0.7-2.9,1.7-5.2,3-6.8c1.3-1.6,2.9-3.1,4.8-4.2c0.4-0.2,1.1-0.7,2.1-1.3c0.2-0.1,0.4-0.3,0.8-0.6
			C365.9,388,366.1,387.8,366.3,387.6z"/>
		<path class="st0" d="M408.9,393.9c1.7-1.6,3-2.3,3.9-2.3s1.8,0.2,2.7,0.7c0.9,0.5,1.6,0.7,2.1,0.7c1,0,1.5-0.5,1.5-1.6
			c0-1.5-0.8-3.2-2.3-5.1c-1.5-1.9-3-2.8-4.5-2.8c-2.9,0-5.8,1.3-8.8,3.8c-3,2.5-5.4,5.5-7.2,9c-1.8,3.5-2.8,6.7-2.8,9.6
			c0,2,1.3,4.1,3.9,6.4c2.6,2.3,4.9,3.4,7,3.4c3.2,0,6.4-0.9,9.6-2.8c3.2-1.9,4.8-3.8,4.8-5.6c0-1-0.6-1.5-1.8-1.5
			c-0.6,0-1.2,0.2-2,0.5c-0.7,0.4-1.9,0.7-3.4,1c-1.5,0.3-3.2,0.5-5.1,0.5s-3-0.2-3.5-0.6c-0.5-0.4-0.7-1.2-0.7-2.4
			c0-1.3,0.7-3,2-5.2C405.7,397.3,407.2,395.4,408.9,393.9z"/>
		<path class="st0" d="M448.8,411.3c-0.9-0.7-1.8-1.4-2.8-2.2c-1-0.7-1.9-1.7-2.8-3.1c-0.9-1.4-1.3-2.8-1.3-4.2s0.9-3.1,2.7-4.9
			c1.8-1.8,3.5-3.5,5.3-5c1.8-1.5,2.7-2.5,2.7-2.9c0-1-0.6-2.3-1.9-3.7c-1.3-1.4-2.4-2.1-3.4-2.1c-0.5,0-1.3,0.5-2.3,1.4
			c-0.5,0.5-1.1,0.9-1.6,1.5c-0.5,0.5-1.1,1.2-1.8,2.1c-0.7,0.9-1.4,1.6-1.9,2.3c-0.6,0.7-1.3,1.6-2.2,2.7c-0.9,1.1-1.6,2-2.2,2.8
			c-0.6,0.8-1.3,1.7-2.3,2.9c-0.9,1.2-1.7,2.1-2.2,2.8c1.6-3.7,3.3-8.7,4.9-15.1c1.6-6.4,2.5-10.7,2.5-13c0-1.6-0.8-3.3-2.5-5.1
			c-1.6-1.8-3-2.7-4-2.7c-1.2,0-1.8,0.6-1.8,1.9c0,5-0.7,10.8-2.1,17.4c-1.4,6.6-2.8,12.3-4.2,17c-1.4,4.7-2.1,7.2-2.1,7.4
			c0,0.9,0.7,2.1,2.2,3.7c1.4,1.5,2.6,2.3,3.6,2.3c1.3,0,3.8-2.7,7.5-8.1l1.5,1.5c4.3,4.4,7.8,6.6,10.4,6.6c2.2,0,3.3-0.8,3.3-2.4
			C450,412.6,449.6,412,448.8,411.3z"/>
		<path class="st0" d="M468,383.3c-2.6,0-5.3,1.1-8,3.3c-2.7,2.2-4.9,5-6.7,8.3c-1.8,3.3-2.7,6.5-2.7,9.5c0,3,1.1,5.6,3.2,7.8
			c2.1,2.2,4.9,3.3,8.5,3.3c3.5,0,6.6-0.7,9.3-2.2c2.7-1.5,4-3,4-4.6c0-1.1-0.9-1.7-2.6-1.7c-0.1,0-1.2,0.3-3.5,0.9
			c-2.2,0.6-4.9,0.9-8,0.9c-1.5,0-2.4-0.2-2.8-0.7c-0.4-0.5-0.6-1.3-0.6-2.4c0-1.1,0.2-2.3,0.6-3.4c1.9,0.4,4.3,0.6,7.2,0.6
			s5.8-0.8,8.5-2.4c2.8-1.6,4.2-3.5,4.2-5.5c0-2.6-1.1-5.2-3.4-7.8C473.1,384.6,470.7,383.3,468,383.3z M462.9,397
			c-0.7,0-1.3,0-1.6-0.1c1.1-1.8,2.2-3.2,3.4-4.3c1.2-1.1,2.2-1.7,3-1.7c0.8,0,1.6,0.4,2.5,1.2c0.9,0.8,1.3,1.4,1.3,1.8
			C471.5,396,468.6,397,462.9,397z"/>
		<path class="st0" d="M501.2,388.2c0.4-0.3,0.6-0.5,0.7-0.7c0.1-0.2,0.4-0.4,0.6-0.8c0.3-0.4,0.4-0.9,0.4-1.7
			c0-1.5-1.5-2.2-4.6-2.2c-1.3,0-2.8,0.4-4.5,1.2c-1.7,0.8-3.2,1.8-4.7,3c-0.4-1.3-1-2.3-1.8-2.9c-0.8-0.6-1.6-0.9-2.5-0.9
			c-1.5,0-2.2,1.2-2.2,3.5l0.4,7.1c0,2.1-0.2,3.9-0.5,5.5c-0.3,1.6-0.9,3.5-1.7,5.7c-0.8,2.2-1.2,3.9-1.2,5c0,1.1,0.3,2.3,1,3.5
			c0.6,1.3,1.6,1.9,2.9,1.9c1.3,0,2.5-1.2,3.6-3.5c1.1-2.4,2.2-5.9,3.3-10.7c0.7-2.9,1.7-5.2,3-6.8c1.3-1.6,2.9-3.1,4.8-4.2
			c0.4-0.2,1.1-0.7,2.1-1.3C500.5,388.7,500.8,388.5,501.2,388.2z"/>
		<path class="st0" d="M523.4,386.1c-1.5-1.9-3.1-2.8-4.7-2.8c-2.3,0-5.5,1.3-9.6,4c-4.1,2.6-6.1,5.1-6.1,7.3c0,1.2,0.6,2.4,1.8,3.7
			c1.2,1.3,2.5,2.3,3.9,3.2c1.4,0.9,2.7,1.8,3.9,2.8c1.2,1,1.8,1.9,1.8,2.8c0,0.8-1.6,1.3-4.7,1.3c-3.1,0-5.7-0.6-7.8-1.8
			c-0.7-0.4-1.4-0.6-1.9-0.6c-1.3,0-2,0.8-2,2.4c0,1.6,1.2,3.2,3.6,4.8c2.4,1.5,5.3,2.3,8.7,2.3c3.4,0,6.4-0.9,8.9-2.6
			c2.5-1.8,3.8-3.5,3.8-5.2c0-1.7-0.6-3.3-1.7-4.8c-1.1-1.5-2.4-2.6-3.7-3.5c-1.3-0.8-2.6-1.6-3.7-2.4c-1.1-0.8-1.7-1.4-1.7-1.8
			c0-1.1,0.9-2,2.8-2.6c1.9-0.7,3.3-1,4.3-1c1,0,1.9,0.2,2.9,0.6c1,0.4,1.7,0.6,2.2,0.6c0.9,0,1.3-0.5,1.3-1.5
			C525.7,389.7,524.9,388,523.4,386.1z"/>
		<path class="st0" d="M391.3,390.9c-0.1-0.3-0.2-0.6-0.4-0.9c-1.5-3.1-5.1-6.7-8.8-6.7c-3,0-6.1,1.6-9.2,4.7
			c-3.1,3.1-5.6,6.5-7.3,10.2c-1.8,3.7-2.7,6.5-2.7,8.5c0,2,1,4,3.1,5.9c2.1,2,4,3,5.8,3c2.7,0,6-2,9.9-6c0.4,1.7,1.1,3.1,1.9,4.3
			c0.9,1.2,1.6,1.8,2.2,1.8c0.6,0,1-0.2,1.3-0.5c0.2-0.2,0.3-0.4,0.4-0.6c0.1-0.2,0.2-0.5,0.3-0.8c0.1-0.4,0.2-0.7,0.2-0.9
			c0.1-0.3,0.1-0.6,0.2-1.1c0.1-0.5,0.2-0.8,0.2-1.2c0-0.3,0.1-0.7,0.2-1.3c0.1-0.5,0.2-1.3,0.4-2.2c0.2-0.9,0.5-2.3,1-4
			c0.3-1,0.5-1.8,0.6-2.4C391.4,397.2,392.4,394.1,391.3,390.9z M378.2,404.2c-2.8,2.3-5,3.4-6.7,3.4c-0.4,0-0.7-0.1-0.8-0.2
			c-0.1-0.1-0.2-0.3-0.2-0.7c0-1.2,0.7-3,2-5.4c1.3-2.5,3-4.8,5.1-6.9c1.6-1.7,3.1-2.7,4.5-3.1c0.6,0.7,1.4,2.1,1.3,4.3c0,0,0,0,0,0
			C382.7,399.1,380.9,402,378.2,404.2z"/>
	</g>
</g>
<g>
	<g>
		<g>
			<path class="st1" d="M436.8,357.2c-3.1-0.6-4-2.4-3-5.1c7.1-19.3,11-39.7,13.3-59.8c1.5-13.1,2.4-26.6,2.9-40
				c0.3-6.7,0.3-13.5,0.2-20.3c0-5.4,0.5-16.3,7.2-11.7c10.4,7.3,11,27.1,10.6,39.2c-1,25.2-6.5,50.4-14.2,74.4
				C448.5,350.1,442.4,358.3,436.8,357.2z"/>
		</g>
	</g>
	<g>
		<g>
			<path class="st1" d="M111.2,341.8c-1.4-26.1-1-51.9,3.5-77.7c1.7-9.6,5.6-33.3,17.5-32.5c7,0.5,5.9,10.2,4.9,14.8
				c-1.2,5.7-2.4,11.6-3.5,17.7c-2.2,12.4-4.1,24.9-5.5,37.3c-2.2,18.8-3.6,38.1-1.5,57.1c0.3,2.5-1.2,4.4-4.5,5.3
				C116.2,365.4,112.5,358,111.2,341.8z"/>
		</g>
	</g>
	<path class="st1" d="M339.3,69.8c-2-2.8-6.2-3.3-9.4-2c-2,0.8-3.7,2.2-5.2,3.8c-0.9,0.9-1.7,1.9-2.4,3c-7.7,10.2-13.2,22-18.2,33.8
		c-3.9,9.3-8,18.7-11.7,28.3c-4.8,12.1-9.2,24.4-12.5,36.9c-4.9,18.4-10.4,36.7-14.9,55.3c-1.3,5.5-2.9,11-4.6,16.3
		c0,0-6.8,21.9-17.7,46.1c-7,15.2-32.5,66.4-57.9,56.8c-11.2-4.3-14.9-18.3-16-29.2c-3.2-32.9,5.7-68.7,26.7-94.7
		c5.3-6.6,11.5-12.6,18.5-17.4c9.4-6.5,21.8-10.9,32.1-5.9c3.3,1.6,6.2,4,9.6,5.3c3.5,1.3,8,0.9,9.9-2.2c1.7-2.7,0.7-6.5-1.6-8.8
		c-2.3-2.3-5.5-3.4-8.6-4.1c-20-4.8-41.6,1-58.3,12.8c-16.8,11.8-29.1,29.2-37.6,47.8c-9,19.8-14.1,41.4-14.3,63.2
		c-0.1,10.5,1,21.3,5.3,30.9c4.3,9.6,12.1,18,22.2,21c3.5,1,7.1,1.4,10.7,1.2c40.9,1.1,61.5-40.7,70.2-65.9c0,0-13.7,69.9,14.4,87
		c4.4,2.6,9.5,4.6,14.3,5c5.9,0.5,11.7-1.9,15.2-6.7c0.1-0.1,0.1-0.2,0.2-0.3c0.2-0.3,0.4-0.6,0.4-0.6c0.9-1.4,1.5-2.9,1.5-4.4
		c0.2-4.1-3-6.3-6.3-6.3c-3.3,0-6.9,1.4-10.3,1.8c-1.9,0.2-3.7,0-5.3-0.4c-16-3.8-13.4-42.7-11-63.1c0.2-1.4,0.4-2.8,0.6-4.2
		c2.4-16.9,5.4-33.8,9-50.5c6.1-28.4,13.9-56.4,23.3-83.9c6.3-18.4,13.3-36.6,21.1-54.4c2.5-5.7,5-11.4,7.9-16.9
		c4.3-7.9,8.1-15.9,10.6-24.7C340.5,76.2,341.2,72.5,339.3,69.8z"/>
	<path class="st1" d="M431.2,229.2c-0.3-4.7-0.7-9.5-1.6-14.2c-1.7-8.7-4.8-17.1-10.8-23.9c-11-12.4-29-11.1-42-2.8
		c-12.5,8-21.9,20.3-30.6,32.2c-9.2,12.5-17.3,25.9-24.1,39.9c1.4-1.4,1.8-6.5,2.3-8.4c0.8-2.9,1.6-5.8,2.4-8.8
		c13.7-47.5,35-92.7,58.3-136.1c1.7-3.3,3.6-7,2.2-10.5c-1.3-3.5-5.6-5.2-9.3-4.7c-14.5,2.1-25.2,22.4-31.9,33.6
		c-14.5,24.4-22.5,51.5-30.2,78.6c-6.9,24.1-13.6,48.3-18.4,73c-4.4,22.3-7.4,45-8.1,67.7c-0.2,6.2-0.3,14.2,5.2,18.4
		c2.3,1.7,5,2,7-0.5c1.1-1.4,1.7-3.2,2.2-4.9c6.4-22.8,11.6-46.3,19.5-68.6c7.8-22.1,18.9-44.9,32.5-64c5.1-7.1,10.8-13.9,17.1-20
		c5.4-5.2,12.6-10.6,20.3-10.8c15-0.3,15.1,21.4,15,31.6c-0.2,19-3.5,38-9,56.2c-3.4,11.5-7.5,22.8-12.8,33.5
		c-3.7,7.5-7.5,15.9-14.3,21.3c-8.9,7.1-24.6,9.9-32.6-0.2c-2.1-2.7-2.8-6.3-2.7-9.7c0.6-11.9,5.6-23.4,11.5-33.6
		c1.6-2.8,3.4-5.2,5.3-7.9c1.6-2.3,3.6-4.3,4.4-7c0.1-0.3,0.2-0.5,0.1-0.8c-1-4.4-13.3,9.8-13.5,10.1c0,0-0.1,0.1-0.1,0.1
		c-12.9,15.6-25.1,38.8-17.4,59.5c2.7,7.4,8.7,13.1,16.3,15.2c19,5.4,39.5-5,52.3-18.6c12.2-12.9,20.2-29.6,25.7-46.3
		c2.6-7.8,4.7-15.7,6.4-23.8C431,259.2,432.1,244.2,431.2,229.2z"/>
	<path class="st1" d="M236,369c-1.3-1.3-3.5-0.6-5.1,0.3c-5.8,3.1-11.2,6.9-16.3,10.9c-9.6,7.4-18.6,15.7-28.9,22.2
		c-15,9.5-33.7,14.8-51,11.9c-27.5-4.6-42.3-30.6-46.9-55.9c-8.5-46-2.2-97.3,8.3-142.6c0.1-0.3,0.2-0.7,0.2-1
		c21.4-6.5,50.3-15.4,63.9-20.4c1.7-0.5,3.2-1.1,4.6-1.7c0.7-0.3,1.4-0.7,2-1c0.9-0.5,1.7-1.2,1.4-2.2c-0.4-1.2-2.3-2.5-3.9-3.2
		c-2.5-1.1-5-1.5-7.4-1.6c-7.3-0.4-14.6,1.1-21.7,2.7c-5.7,1.2-11.4,2.5-17.1,3.7c-1.1,0.2-11.8,1.9-17,2.8
		c7.1-27.6,16.6-54.6,28.4-80.6c12.2-26.7,28.8-50.6,43.8-75.7c2.5-4.2,5.1-8.5,6-13.3c0.9-4.8-0.2-10.3-3.9-13.4
		c-3.8-3.2-9.5-3.2-14-1.3c-4.5,1.9-8.2,5.5-11.4,9.2c-12.9,14.7-21.9,32.3-30,50c-18.6,40.8-33.3,83.3-43.7,126.9
		c-11.1,0.3-22.3-1.3-32.9-4.8c-6.4-2.1-13.1-4.8-19.6-3.2c-5.7,1.4-10.2,5.9-13.2,10.9c-3.7,6.1-5.5,14.1-1.7,20.1
		c3.6,5.9,11.2,7.9,18.1,8.6c14.5,1.6,29.4,0,43.2-4.7c0.3-0.1-1.6,14.7-1.8,16.1c-5.7,34.3-7.6,61.1-7.5,81.5
		c0,21.2,2,43.1,10.4,62.8c7.7,18,21.9,33.5,40.4,40.4c21.2,7.9,45.3,5.2,65.8-3.7c22.4-9.8,41.1-26.5,57.1-44.9
		C236.1,373.2,237.6,370.6,236,369z"/>
	<path class="st1" d="M559.6,173.3c-6.1-0.3-12.4-0.1-18.5,0.1c-5.9,0.2-11.7,0.6-17.4,1c1.5-6,3.1-12,4.7-17.9
		c2.4-8.9,4.9-17.7,7.4-26.5c2.1-7.3,6.6-16.6,6.7-24.2c0-2.3-1-4.7-3.1-5.6c-2.3-1-4.9,0-7.1,1.3c-15.7,9.4-20.7,29.8-25.7,46
		c0,0-4.6,15-4.6,15c-1.3,4.8-2.5,9.7-3.6,14.4c-12.3,1.2-24.7,2.4-37,2.4c-6.5,0-13.2-0.5-19.7-0.3c-4.2,0.2-12.7-0.5-10.2,8.3
		c0.7,2.3,2,4.6,3.4,6.4c2.4,3,4.9,4.8,7.4,5.8c4.5,1.7,9.1,0.9,12.8,0.3c13.3-2.5,26.6-5,39.9-7.5c-7.7,37.2-10.6,72.3-8.8,105.3
		c2.7,49.4,18.3,73.3,46.7,71.7c10.9-0.6,19.6-9.8,25.7-18.4c2.4-3.5,4.6-7.2,6.2-11.2c0.9-2.2,1.6-4.5,1.9-6.8
		c0.1-0.6,0.2-1.3,0.1-2c0-0.3-0.1-0.4-0.4-0.4c-0.3,0-0.7,0-1,0.1c-0.9,0.3-1.7,0.8-2.4,1.3c-2.1,1.5-3.9,3.4-5.6,5.3
		c-1.8,2-3.5,4-5.1,6.1c-0.9,1.2-1.9,2.4-2.7,3.6c0,0-0.1,0.1-0.1,0.1c-6.3,7.8-16.3,13-25.5,6.9c-5.7-3.8-8.8-10.5-10.8-16.8
		c-7.4-23.2-6.4-48.9-4.8-72.9c1.7-26,6.4-51.6,12.3-77c7.2-1.4,14.7-2.9,22.5-4.3c8.3-1.5,17.5-2.6,26.5-5.2c1.5-0.4,3.2-1,3.4-1.7
		C573.8,173.9,562.6,173.4,559.6,173.3z"/>
</g>
</svg>
